/* XPM */
static char * kprof_xpm[] = {
"32 32 18 1",
" 	c None",
".	c #585858",
"+	c #303030",
"@	c #000000",
"#	c #C3C3C3",
"$	c #A0A0A0",
"%	c #404000",
"&	c #FFFFFF",
"*	c #808080",
"=	c #000080",
"-	c #004000",
";	c #A0A0A4",
">	c #C0C0C0",
",	c #FFC0C0",
"'	c #C00000",
")	c #FF0000",
"!	c #FFFFC0",
"~	c #FFDCA8",
" ..............+@               ",
" .###########$$$%@              ",
" .#&&&&&&&&&&& #.*@             ",
" .#&&&&&&&&&&&& .#*@            ",
" .#&&&=&&&&&&&&&.&#*@           ",
" .#&&=&=&&&&&&&&.&& *@          ",
" .#&&=&=&&&&&&&&. &&#*@         ",
" .#&&&=&&&&&&&&&.# && *@        ",
" .#&&&&&&&&&&&&&*......+@       ",
" .#&&&=&&&&&&&&&&  ##$*.@       ",
" .#&&==&&&&&&&&&&&  ##$*@       ",
" .#&&&=&&&&&&&&&&&&&*@@@*    *- ",
" .#&&===&&&&&&&*&&&&@*;&@   >--@",
" .#&&&&&&&&&&&@,@>>@@@@@@@>>@*@ ",
" .#&&&=&&&&=&*'),@@*******@@*;  ",
" .#&&=&=&&==&>@'@***>>>>>***@   ",
" .#&&=&=&&&=&&>@**>>&&*&&>>**@  ",
" .#&&&=&&&===&@**>&*&&>&&*&>**@ ",
" .#&&&&&&&&&!>@*>&&&>&*&)&&&>*@@",
" .#&&&=&&&&=&*.*>*&&&&*&)&&*>**@",
" .#&&==&&&=&=@*>&&>&&&*)&&>&&>*@",
" .#&&&=!&&=&=@*>&&&&&&*)&&&&&>*@",
" .#&&===!&~=~@*>*>&&&&)&&&&>*>*@",
" .#&&&&&&&!&&@*>&&&&&&)&&&&&&>*@",
" .#&&&~&~&~=~@*>&&>&&&&&&&>&&>*@",
" .#&&&&&!&==!*.*>*&&&&&&&&&*>**@",
" .#&&&!&~&~=~>@*>&&&>&&&>&&&>*@@",
" .#&&&!&&~===&@**>&*&&>&&*&>**@@",
" .#&!&~&~ ~ ~&>@**>>&&*&&>>**@- ",
" .#&!~&~!~&~&$ $@***>>>>>***@*  ",
" .#####$#$#$$ $$$@@*******@@-   ",
" @+++++++++++@@@@@@@@@@@@@@@    "};
